<svg xmlns="http://www.w3.org/2000/svg" width="175" height="55" style=""><rect id="backgroundrect" width="100%" height="100%" x="0" y="0" fill="none" stroke="none" style="" class=""/><g class="currentLayer" style=""><title>Layer 1</title><path fill-rule="evenodd" clip-rule="evenodd" fill="#fff" fill-opacity="0" d="M-0.0015878677368164062,0.00032806396484375 h175.36476135253906 v55.076541900634766 H-0.0015878677368164062 V0.00032806396484375 z" id="svg_1" class=""/><path fill-rule="evenodd" clip-rule="evenodd" fill="#28539c" d="M10.888124465942383,11.983154296875 h3.240000009536743 v-3.497999906539917 H3.7311248779296875 v3.497999906539917 h3.239000082015991 v12.387999534606934 h3.9179999828338623 V11.983154296875 zM27.33112335205078,8.485153198242188 v8.36400032043457 c0,2.063999891281128 -0.14000000059604645,4.317999839782715 -2.6589999198913574,4.317999839782715 c-2.5199999809265137,0 -2.6589999198913574,-2.253999948501587 -2.6589999198913574,-4.317999839782715 v-8.36400032043457 h-3.9189999103546143 v8.930999755859375 c0,2.0460000038146973 0.07999999821186066,4.066999912261963 1.5789999961853027,5.605999946594238 c1.2599999904632568,1.3049999475479126 3.240000009536743,1.7680000066757202 5,1.7680000066757202 c1.7589999437332153,0 3.739000082015991,-0.4620000123977661 4.999000072479248,-1.7680000066757202 c1.4989999532699585,-1.5390000343322754 1.5789999961853027,-3.561000108718872 1.5789999961853027,-5.605999946594238 v-8.930999755859375 h-3.9200000762939453 zM44.19012451171875,17.860153198242188 c2.140000104904175,-0.4000000059604645 3.2980000972747803,-2.2960000038146973 3.2980000972747803,-4.486999988555908 c0,-3.3919999599456787 -2.259000062942505,-4.88700008392334 -5.236999988555908,-4.88700008392334 h-5.859000205993652 v15.88599967956543 h3.9189999103546143 V18.260154724121094 h0.03999999910593033 l3.6989998817443848,6.111000061035156 h4.877999782562256 L44.19012451171875,17.860153198242188 zm-3.878999948501587,-6.216000080108643 h0.3790000081062317 c1.2799999713897705,0 2.7190001010894775,0.2529999911785126 2.7190001010894775,1.9800000190734863 c0,1.7280000448226929 -1.4390000104904175,1.9800000190734863 -2.7190001010894775,1.9800000190734863 h-0.3790000081062317 v-3.9600000381469727 zM56.595123291015625,15.037155151367188 h-0.03999999910593033 v-6.552000045776367 h-3.9189999103546143 v15.88599967956543 h3.9189999103546143 V17.48015594482422 h0.03999999910593033 l5.057000160217285,6.890999794006348 h5.078999996185303 l-6.539000034332275,-8.364999771118164 l5.999000072479248,-7.520999908447266 h-4.859000205993652 l-4.736999988555908,6.552000045776367 zM74.37212371826172,8.485153198242188 h-3.9189999103546143 v15.88599967956543 h3.9189999103546143 V8.485153198242188 zM89.36112213134766,9.369155883789062 c-1.3380000591278076,-0.8009999990463257 -3.1989998817443848,-1.3070000410079956 -4.7179999351501465,-1.3070000410079956 c-3.0209999084472656,0 -5.197999954223633,2.1070001125335693 -5.197999954223633,5.329999923706055 c0,3.0759999752044678 1.61899995803833,3.750999927520752 4.078000068664551,4.48799991607666 c0.8389999866485596,0.2529999911785126 2.380000114440918,0.652999997138977 2.380000114440918,1.812999963760376 c0,1.1160000562667847 -0.9800000190734863,1.600000023841858 -1.899999976158142,1.600000023841858 c-1.340000033378601,0 -2.497999906539917,-0.7379999756813049 -3.4779999256134033,-1.6440000534057617 l-1.6790000200271606,3.3289999961853027 c1.5390000343322754,1.1380000114440918 3.3989999294281006,1.8109999895095825 5.297999858856201,1.8109999895095825 c1.5199999809265137,0 3.0999999046325684,-0.4410000145435333 4.281000137329102,-1.49399995803833 c1.1970000267028809,-1.0750000476837158 1.5570000410079956,-2.6989998817443848 1.5570000410079956,-4.2769999504089355 c0,-2.571000099182129 -1.61899995803833,-3.687999963760376 -3.7179999351501465,-4.3420000076293945 l-1,-0.3149999976158142 c-0.6800000071525574,-0.23100000619888306 -1.7400000095367432,-0.5899999737739563 -1.7400000095367432,-1.5160000324249268 c0,-0.8859999775886536 0.9599999785423279,-1.3289999961853027 1.6799999475479126,-1.3289999961853027 c0.9599999785423279,0 1.878999948501587,0.421999990940094 2.5999999046325684,1.0540000200271606 l1.5570000410079956,-3.2009999752044678 zM98.4001235961914,14.615158081054688 v-6.130000114440918 h-3.9200000762939453 v15.88599967956543 h3.9200000762939453 V17.860153198242188 h5.6579999923706055 v6.511000156402588 h3.9179999828338623 V8.485153198242188 h-3.9179999828338623 v6.130000114440918 h-5.6579999923706055 zM13.259124755859375,44.03315734863281 l0.9800000190734863,2.759999990463257 h4.177999973297119 l-5.677000045776367,-15.88700008392334 h-4.28000020980835 l-5.796999931335449,15.88700008392334 h4.1579999923706055 l1.0390000343322754,-2.759999990463257 h5.39900016784668 zm-1.059000015258789,-3.1600000858306885 h-3.259000062942505 l1.61899995803833,-5.057000160217285 h0.04100000113248825 l1.5989999771118164,5.057000160217285 zM25.208126068115234,30.906158447265625 h-3.9179999828338623 v15.88700008392334 h3.9179999828338623 V30.906158447265625 zM37.70012664794922,40.28315734863281 c2.1389999389648438,-0.4000000059604645 3.2990000247955322,-2.296999931335449 3.2990000247955322,-4.486000061035156 c0,-3.3929998874664307 -2.259999990463257,-4.890999794006348 -5.238999843597412,-4.890999794006348 h-5.855999946594238 v15.88700008392334 h3.9179999828338623 v-6.109000205993652 h0.03999999910593033 l3.6989998817443848,6.109000205993652 h4.877999782562256 l-4.738999843597412,-6.510000228881836 zm-3.878000020980835,-6.215000152587891 h0.3799999952316284 c1.2799999713897705,0 2.7190001010894775,0.2540000081062317 2.7190001010894775,1.9800000190734863 c0,1.7289999723434448 -1.437999963760376,1.9800000190734863 -2.7190001010894775,1.9800000190734863 h-0.3799999952316284 v-3.9600000381469727 zM49.698123931884766,30.906158447265625 h-3.9189999103546143 v15.88700008392334 h8.616999626159668 v-3.497999906539917 H49.698123931884766 V30.906158447265625 zM61.84712219238281,30.906158447265625 H57.928123474121094 v15.88700008392334 h3.9189999103546143 V30.906158447265625 zM66.72412872314453,46.79315948486328 h3.9179999828338623 V37.060157775878906 h0.03999999910593033 l7.177999973297119,9.732999801635742 h3.9189999103546143 V30.906158447265625 h-3.9189999103546143 v9.71500015258789 h-0.03999999910593033 l-7.177999973297119,-9.71500015258789 h-3.9179999828338623 v15.88700008392334 zM95.41612243652344,34.40415954589844 v-3.497999906539917 h-8.57699966430664 v15.88700008392334 h8.57699966430664 v-3.497999906539917 h-4.6579999923706055 v-2.739000082015991 h4.418000221252441 V37.060157775878906 h-4.418000221252441 v-2.6559998989105225 h4.6579999923706055 zM109.74812316894531,31.791152954101562 c-1.3380000591278076,-0.7990000247955322 -3.197000026702881,-1.3049999475479126 -4.7170000076293945,-1.3049999475479126 c-3.0199999809265137,0 -5.197000026702881,2.1070001125335693 -5.197000026702881,5.329999923706055 c0,3.0759999752044678 1.61899995803833,3.752000093460083 4.078000068664551,4.48799991607666 c0.8399999737739563,0.25200000405311584 2.378999948501587,0.6520000100135803 2.378999948501587,1.8109999895095825 c0,1.1169999837875366 -0.9789999723434448,1.6039999723434448 -1.899999976158142,1.6039999723434448 c-1.3380000591278076,0 -2.497999906539917,-0.7379999756813049 -3.4769999980926514,-1.6449999809265137 l-1.6799999475479126,3.328000068664551 c1.5390000343322754,1.1390000581741333 3.3980000019073486,1.812000036239624 5.296999931335449,1.812000036239624 c1.5210000276565552,0 3.0999999046325684,-0.4410000145435333 4.2789998054504395,-1.49399995803833 c1.1990000009536743,-1.0759999752044678 1.5609999895095825,-2.6989998817443848 1.5609999895095825,-4.2769999504089355 c0,-2.569999933242798 -1.6230000257492065,-3.688999891281128 -3.7190001010894775,-4.3420000076293945 l-1.0019999742507935,-0.3160000145435333 c-0.6779999732971191,-0.23000000417232513 -1.7380000352859497,-0.5899999737739563 -1.7380000352859497,-1.5160000324249268 c0,-0.8849999904632568 0.9589999914169312,-1.3279999494552612 1.6799999475479126,-1.3279999494552612 c0.9589999914169312,0 1.878999948501587,0.421999990940094 2.5999999046325684,1.0549999475479126 l1.555999994277954,-3.2049999237060547 z" id="svg_2" class=""/><path d="M124.97611999511719,27.539154052734375 c0,-13.465999603271484 10.357000350952148,-24.382999420166016 23.136999130249023,-24.382999420166016 c12.777000427246094,0 23.135000228881836,10.916999816894531 23.135000228881836,24.382999420166016 c0,13.46500015258789 -10.357000350952148,24.381000518798828 -23.135000228881836,24.381000518798828 c-12.779000282287598,0 -23.136999130249023,-10.916000366210938 -23.136999130249023,-24.381000518798828 z" fill="none" stroke="#cf4037" stroke-width="2.188" stroke-miterlimit="2.613" id="svg_3" class=""/><path d="M155.09812927246094,22.193153381347656 c-1.065999984741211,-7.556000232696533 -7.295000076293945,-11.286999702453613 -11.185999870300293,-13.522000312805176 c-3.6110000610351562,-2.072999954223633 -6.843999862670898,-3.015000104904175 -6.921999931335449,-2.7720000743865967 c4.10699987411499,3.377000093460083 6.74399995803833,8.637999534606934 6.74399995803833,14.548999786376953 c0,9.692999839782715 -7.0960001945495605,17.639999389648438 -16.111000061035156,18.381999969482422 l0.5699999928474426,0.8999999761581421 c11.541000366210938,-1.8380000591278076 42.42599868774414,-7.701000213623047 42.42599868774414,-7.701000213623047 l0.0820000022649765,-0.6890000104904175 l-18.738000869750977,-0.656000018119812 c2.068000078201294,-2.234999895095825 3.4839999675750732,-6.0289998054504395 3.134999990463257,-8.491000175476074 z" fill-rule="evenodd" clip-rule="evenodd" fill="#cf4037" id="svg_4" class=""/></g></svg>